<?xml version="1.0" encoding="utf-8"?>
<!-- Generator: Adobe Illustrator 24.1.2, SVG Export Plug-In . SVG Version: 6.00 Build 0)  -->
<svg version="1.0" id="Camada_1" xmlns="http://www.w3.org/2000/svg" xmlns:xlink="http://www.w3.org/1999/xlink" x="0px" y="0px"
	 viewBox="0 0 1020.76 508.25" style="enable-background:new 0 0 1020.76 508.25;" xml:space="preserve">
<style type="text/css">
	.st0{fill:#FFFFFF;}
</style>
<g>
	<path class="st0" d="M349.82,90.65c5.97-14.61,5.5-26.75-1.41-36.41c-6.91-9.66-19.17-13.08-36.76-10.25
		c-13.36,3.77-30.95,19.48-52.79,47.13c-21.84,27.65-44.42,59.78-67.75,96.39c-23.33,36.61-43.72,70.31-61.16,101.1
		c22.94-56.56,43.2-101.26,60.8-134.1c10.21-19.64,20.5-40.69,30.87-63.16c1.89-4.71,2.12-9.9,0.71-15.55c-0.16,0-0.32,0-0.47,0
		c-4.09-14.77-13.43-23.33-28.05-25.69c-35.67-5.34-64.65-0.15-86.96,15.55c-15.87,11.31-26.63,23.45-32.29,36.41
		c-5.66,12.96-8.64,24-8.96,33.11c-0.15,2.2,0.43,4.01,1.77,5.42c1.34,1.41,2.91,2.28,4.71,2.59c1.81,0.32,3.42-0.24,4.83-1.65
		c5.81-6.28,14.69-13.55,26.63-21.8s23.72-15.44,35.35-21.56c11.63-6.13,19.95-8.95,24.98-8.48c1.26,0.16,2.2,0.63,2.83,1.41
		c0.63,0.79,0.71,1.65,0.23,2.59c-15.55,28.91-31.34,61.59-47.37,98.04c-16.03,36.45-29.65,69.68-40.89,99.69
		c-11.23,30.01-16.85,48.39-16.85,55.15c0,6.29,1.57,12.14,4.71,17.56c3.15,5.42,6.8,10.06,10.96,13.9
		c4.16,3.85,7.93,6.6,11.31,8.25c3.38,1.65,5.3,1.92,5.77,0.82c1.1-3.45,2.2-6.83,3.3-10.13c0.16-0.31,0.31-0.71,0.47-1.18
		c8.17-14.3,21.21-36.8,39.12-67.52c17.91-30.71,37.43-62.96,58.56-96.74c21.13-33.78,40.57-62.53,58.33-86.26
		c17.75-23.72,30.4-35.82,37.94-36.29c1.73,0.16,2.79,0.63,3.18,1.41c0.39,0.79,0.27,1.65-0.35,2.59
		c-15.4,28.91-31.11,61.59-47.13,98.04c-16.03,36.45-29.69,69.68-41.01,99.69c-11.31,30.01-16.97,48.39-16.97,55.14
		c0,6.29,1.61,12.14,4.83,17.56c3.22,5.42,6.91,10.06,11.08,13.9c4.16,3.85,7.89,6.6,11.19,8.25c3.3,1.65,5.26,1.92,5.89,0.82
		c19.8-59.07,37.27-105.81,52.44-140.22c15.16-34.41,29.18-63.94,42.07-88.61C328.37,136.69,339.13,114.38,349.82,90.65z"/>
	<path class="st0" d="M974.22,246.66c-0.7-1.1-1.77-1.65-3.18-1.65c-1.57,0-2.83,0.71-3.77,2.12c-3.14,6.13-9.82,17.28-20.03,33.46
		c-10.21,16.18-21.29,31.78-33.23,46.78c-11.94,15.01-21.68,22.51-29.22,22.51c-6.6,0-7.42-7.5-2.47-22.51
		c4.95-15,11.94-31.82,20.97-50.43c9.03-18.62,17.01-34.52,23.92-47.72c3.93-7.85,6.52-13.12,7.78-15.79
		c2.04-4.87,2.47-10.6,1.3-17.2c-1.18-6.6-3.53-12.53-7.07-17.79c-3.53-5.26-7.74-7.9-12.61-7.9c-2.52,0-6.72,3.62-12.61,10.84
		c-5.89,7.23-12.53,16.73-19.91,28.52c-2.99-7.38-7.66-14.14-14.02-20.27c-6.36-6.13-15.2-9.19-26.51-9.19
		c-22.62,0-44.35,10.53-65.16,31.58c-20.82,21.06-37.35,45.05-49.61,72c-1.72,3.79-3.29,7.51-4.74,11.18
		c-7.3,10.74-15.01,21.2-23.19,31.36c-12.02,14.93-21.8,22.39-29.34,22.39c-5.97,0-7.27-5.89-3.89-17.67
		c3.38-11.79,8.76-25.45,16.14-41.01c7.39-15.56,14.38-29.7,20.98-42.42c5.81-11.47,9.5-19.17,11.08-23.09
		c3.3-9.74,3.61-17.83,0.94-24.27c-2.67-6.44-6.6-11.27-11.78-14.49c-5.19-3.22-9.82-5.07-13.9-5.54h-0.24
		c-2.52-0.47-5.42-0.71-8.72-0.71c-12.73,0-26.36,7.11-40.89,21.33c-14.53,14.22-28.44,30.99-41.71,50.32
		c-13.28,19.32-24.71,37.47-34.29,54.44c11.78-31.26,22.7-57.89,32.76-79.89c3.14-7.38,3.42-14.61,0.82-21.68
		c-2.59-7.07-7.42-12.41-14.49-16.03l-13.67-8.25c-1.1-0.47-2.2-0.51-3.3-0.12c-1.1,0.39-1.88,1.14-2.36,2.24
		c-12.59,28.36-23.84,55.12-33.74,80.31c-3.1,5.14-6.84,11.17-11.28,18.2c-10.21,16.18-21.29,31.78-33.23,46.78
		c-11.94,15.01-21.68,22.51-29.22,22.51c-6.6,0-7.42-7.5-2.47-22.51c4.95-15,11.94-31.82,20.97-50.43
		c9.03-18.62,17.01-34.52,23.92-47.72c3.92-7.85,6.52-13.12,7.78-15.79c2.04-4.87,2.47-10.6,1.3-17.2
		c-1.18-6.6-3.54-12.53-7.07-17.79c-3.32-4.95-7.25-7.54-11.75-7.84l7.46-29.92c8.68,0.17,16.64-5.61,18.83-14.39
		c2.55-10.2-3.66-20.53-13.87-23.07c-10.19-2.55-20.53,3.66-23.07,13.86c-2.19,8.78,2.13,17.63,9.87,21.55l-9.82,39.39
		c-0.91,1.03-1.85,2.12-2.87,3.36c-5.89,7.23-12.53,16.73-19.91,28.52c-2.99-7.38-7.66-14.14-14.02-20.27
		c-3.82-3.68-8.56-6.24-14.17-7.71L412.09,70.74c8.08-3.16,13.24-11.55,11.9-20.49c-1.54-10.41-11.22-17.58-21.63-16.04
		c-10.39,1.55-17.57,11.23-16.03,21.63c1.33,8.95,8.7,15.48,17.36,16.14l16.14,108.58c-1.16-0.07-2.34-0.12-3.56-0.12
		c-22.62,0-44.35,10.53-65.16,31.58c-20.82,21.06-37.35,45.05-49.61,72c-12.26,26.95-17.56,50.9-15.91,71.88
		c1.65,20.97,13.79,31.46,36.41,31.46c13.04,0,27.89-8.52,44.54-25.57c16.65-17.05,31.19-34.21,43.6-51.49
		c-6.6,21.53-8.53,39.75-5.77,54.68c1.23,6.69,4.06,11.87,8.46,15.56l-24.11,74.24c-0.72,2.24-7.15,28.17-4.92,28.9
		c2.23,0.72,12.27-24.04,12.99-26.27l23.56-72.56c4.02,1.51,8.76,2.34,14.23,2.48l4.83,45.11c0.25,2.34,4.98,28.63,7.31,28.39
		c2.33-0.25,1.38-26.96,1.13-29.29l-4.84-45.17c10.06-2.92,21.45-12.21,34.17-27.86c13.67-16.82,26.28-34.6,37.97-53.23
		c-7.63,21.56-11.45,35.12-11.45,40.62c0,6.44,1.61,12.37,4.83,17.79c3.22,5.42,6.92,10.06,11.08,13.9c4.17,3.85,7.89,6.6,11.2,8.25
		c3.3,1.65,5.27,1.92,5.89,0.82c0.63-1.88,1.26-3.77,1.89-5.66c0.16-0.62,0.31-1.33,0.47-2.12c6.6-13.04,17.63-33.23,33.11-60.57
		c15.47-27.34,31.89-53.18,49.25-77.53c17.36-24.35,31.54-36.53,42.54-36.53c1.88,0,3.57,0.67,5.07,2c1.49,1.34,1.69,3.03,0.59,5.07
		c-13.52,22-25.73,46.47-36.65,73.41c-10.92,26.95-16.26,50.67-16.02,71.17c0.24,20.5,11.43,30.75,33.58,30.75
		c11.47,0,25.06-9.66,40.77-28.99c8.16-10.04,15.95-20.4,23.39-31.04c-1.94,10.33-2.55,20.08-1.83,29.27
		c1.65,20.97,13.79,31.46,36.41,31.46c13.04,0,27.89-8.52,44.54-25.57c16.65-17.05,31.19-34.21,43.6-51.49
		c-6.6,21.53-8.52,39.75-5.77,54.68c2.75,14.93,13.39,22.39,31.93,22.39c11.62,0,25.25-9.62,40.89-28.87
		c15.63-19.24,29.97-39.67,43.01-61.27c13.04-21.6,21.99-37.27,26.87-47.02C974.96,248.94,974.92,247.76,974.22,246.66z
		 M487.65,121.16c-1.81-4.23,0.14-9.12,4.37-10.93c4.22-1.81,9.12,0.14,10.93,4.37c1.82,4.22-0.14,9.12-4.36,10.93
		C494.36,127.34,489.46,125.38,487.65,121.16z M405.04,57.67c-4.14,1.98-9.11,0.23-11.1-3.91c-1.98-4.15-0.23-9.12,3.92-11.1
		c4.15-1.99,9.12-0.23,11.1,3.92C410.95,50.71,409.2,55.68,405.04,57.67z M427.82,264.34c-13.36,19.79-24.9,36.02-34.64,48.66
		c-9.74,12.65-19.56,23.92-29.46,33.82c-9.9,9.9-18.07,14.85-24.51,14.85c-7.07,0-8.8-7.11-5.19-21.33
		c3.61-14.22,10.56-30.4,20.86-48.55c10.29-18.15,22.39-34.33,36.29-48.55c13.9-14.22,27.77-21.33,41.6-21.33
		c6.44,0,11.55,0.94,15.32,2.83C441.02,237.16,434.26,250.36,427.82,264.34z M855.09,264.34c-13.36,19.79-24.9,36.02-34.65,48.66
		c-9.74,12.65-19.56,23.92-29.46,33.82c-9.9,9.9-18.07,14.85-24.51,14.85c-7.07,0-8.8-7.11-5.18-21.33
		c3.61-14.22,10.56-30.4,20.85-48.55c10.29-18.15,22.39-34.33,36.29-48.55c13.9-14.22,27.77-21.33,41.59-21.33
		c6.44,0,11.55,0.94,15.32,2.83C868.29,237.16,861.53,250.36,855.09,264.34z"/>
</g>
</svg>
